<?xml version="1.0" encoding="UTF-8" standalone="no"?>
<!-- Created with Inkscape (http://www.inkscape.org/) -->

<svg
   width="80"
   height="80"
   viewBox="0 0 21.166666 21.166667"
   version="1.1"
   id="svg7239"
   xml:space="preserve"
   inkscape:version="1.2.2 (1:1.2.2+202212051552+b0a8486541)"
   sodipodi:docname="clima_ico.svg"
   xmlns:inkscape="http://www.inkscape.org/namespaces/inkscape"
   xmlns:sodipodi="http://sodipodi.sourceforge.net/DTD/sodipodi-0.dtd"
   xmlns="http://www.w3.org/2000/svg"
   xmlns:svg="http://www.w3.org/2000/svg"><sodipodi:namedview
     id="namedview7241"
     pagecolor="#ffffff"
     bordercolor="#666666"
     borderopacity="1.0"
     inkscape:showpageshadow="2"
     inkscape:pageopacity="0.0"
     inkscape:pagecheckerboard="0"
     inkscape:deskcolor="#d1d1d1"
     inkscape:document-units="px"
     showgrid="false"
     inkscape:zoom="4.0970529"
     inkscape:cx="70.41647"
     inkscape:cy="46.984993"
     inkscape:window-width="1920"
     inkscape:window-height="1016"
     inkscape:window-x="0"
     inkscape:window-y="0"
     inkscape:window-maximized="1"
     inkscape:current-layer="layer1" /><defs
     id="defs7236" /><g
     inkscape:label="Capa 1"
     inkscape:groupmode="layer"
     id="layer1"><path
       style="fill:#000000;stroke-width:0.0785772"
       d="M 7.3298168,20.524029 C 7.1658917,20.463862 6.9261007,20.339397 6.7969506,20.247436 6.4965623,20.033541 6.1136232,19.364585 6.0504619,18.943395 5.9885668,18.530615 6.1843064,17.830548 6.4498823,17.514936 L 6.6456496,17.282279 V 15.230976 13.179673 H 4.4202032 c -2.5582023,0 -2.7659135,-0.03688 -3.3180885,-0.58905 C 0.51025875,11.99877 0.36596092,11.108335 0.74234628,10.370559 0.92644018,10.009707 1.4551619,9.5103762 1.724829,9.4426939 1.9141341,9.3951736 1.915177,9.389455 1.8732073,8.6278077 1.8042387,7.3761423 2.1209608,6.4736121 2.9249889,5.6306736 3.7200301,4.7971571 4.7162025,4.414695 5.9333609,4.4756663 6.5626837,4.5071977 6.7743215,4.5541274 7.2344345,4.7642257 L 7.7839318,5.0151341 8.0594925,4.8646838 C 8.2110517,4.7819302 8.5737657,4.6512371 8.8655243,4.5742481 9.1572829,4.497256 9.4268705,4.3953203 9.4646096,4.3477239 9.5050573,4.2967191 9.4741165,4.019197 9.3892613,3.6718578 9.1860671,2.8400889 9.1956083,2.5291463 9.4315663,2.2931886 9.6704078,2.0543466 9.9137222,2.0486343 10.750289,2.2622296 11.505952,2.455167 11.514753,2.4499499 11.714626,1.6906932 11.949,0.80038051 12.270851,0.44445856 12.735995,0.56120252 c 0.114757,0.0288032 0.451886,0.28080832 0.749166,0.56001158 0.297281,0.2792032 0.593653,0.5076422 0.65861,0.5076422 0.06495,0 0.340393,-0.206899 0.61208,-0.4597755 0.74422,-0.69268525 0.971496,-0.77339344 1.346725,-0.47823785 0.147556,0.11606681 0.265175,0.35581395 0.414414,0.84470275 0.114616,0.3754508 0.247981,0.7258988 0.296389,0.7787728 0.06908,0.075462 0.223038,0.062988 0.715907,-0.058005 0.845513,-0.2075618 1.101268,-0.2005166 1.338661,0.036875 0.237391,0.2373921 0.244437,0.4931482 0.03688,1.3386606 -0.120998,0.4928687 -0.133472,0.6468229 -0.05801,0.7159081 0.05288,0.048408 0.403325,0.1817831 0.778774,0.2963899 0.488889,0.1492389 0.728637,0.266857 0.844702,0.4144134 0.295156,0.3752286 0.214446,0.602505 -0.478238,1.346724 -0.252878,0.2716897 -0.459776,0.5487854 -0.459776,0.6157719 0,0.066981 0.207421,0.3397292 0.460938,0.606095 0.253516,0.2663687 0.501035,0.561542 0.55004,0.6559373 0.258589,0.4981134 -0.06555,0.8615927 -1.030937,1.1560515 -0.373807,0.1140257 -0.697729,0.2365558 -0.719821,0.2723048 -0.0221,0.035752 0.02924,0.355612 0.114083,0.710802 0.203798,0.853265 0.197353,1.071344 -0.03862,1.307322 -0.23048,0.23048 -0.550989,0.248756 -1.238444,0.07062 -0.259482,-0.06724 -0.562417,-0.111447 -0.673186,-0.09822 -0.212081,0.02531 -0.213685,0.02842 -0.455587,0.885115 -0.15612,0.552888 -0.465682,0.906899 -0.793035,0.906896 -0.142835,-1e-6 -0.376351,-0.12117 -0.654154,-0.339442 l -0.432025,-0.339446 -0.27517,0.16265 c -0.259541,0.153407 -0.412391,0.163999 -2.691409,0.18648 l -2.4162428,0.02384 v 1.998842 1.998841 l 0.2633607,0.345023 c 0.4921768,0.644787 0.5434071,1.376538 0.1478771,2.112208 -0.4413858,0.820965 -1.4451997,1.20216 -2.3201111,0.881056 z m 1.204042,-0.684954 C 8.7263401,19.741831 8.9667675,19.538518 9.0681421,19.387258 9.2240078,19.154688 9.2477879,19.036427 9.2222044,18.621102 9.1950088,18.179624 9.1625282,18.099839 8.901012,17.832017 L 8.6100745,17.534071 v -3.920472 c 0,-3.9170956 -1.57e-4,-3.9206305 -0.1708504,-4.1023355 C 8.2138447,9.2713601 7.7839203,9.2661255 7.5347047,9.5003161 7.3849691,9.64099 7.352842,9.752034 7.352842,10.128931 v 0.457765 H 7.6671505 7.981459 v 0.31431 0.314308 H 7.6671505 7.352842 v 0.353596 0.353595 H 7.6671505 7.981459 v 0.314308 0.31431 H 7.6671505 7.352842 v 0.314307 0.314308 H 7.6671505 7.981459 v 0.314307 0.314309 H 7.6671505 7.352842 v 0.353598 0.353595 H 7.6671505 7.981459 v 0.31431 0.314305 H 7.6671505 7.352842 v 0.31431 0.314305 H 7.6671505 7.981459 v 0.31431 0.314309 H 7.6671505 7.352842 v 0.58487 c 0,0.504339 -0.022629,0.600722 -0.1643557,0.699992 -0.7756012,0.543253 -0.6198306,1.773783 0.276045,2.18067 0.4217643,0.191558 0.6467087,0.185712 1.0693275,-0.02779 z M 7.6671505,18.680064 V 18.365756 H 7.981459 8.295766 v 0.314308 0.314306 H 7.981459 7.6671505 Z m 8.2945325,-6.540911 c 0.07198,-0.293684 0.206445,-0.645503 0.298831,-0.781814 0.261929,-0.386472 0.499525,-0.424715 1.356376,-0.218318 0.406769,0.09798 0.760987,0.156739 0.787151,0.130576 0.02616,-0.02616 -0.03085,-0.355052 -0.126716,-0.730862 -0.184429,-0.7230736 -0.17108,-1.0579802 0.052,-1.3044794 0.07205,-0.079613 0.478067,-0.2525764 0.902271,-0.3843643 0.8898,-0.2764403 0.8844,-0.2498698 0.189343,-0.9314629 C 18.928705,7.4357306 18.77764,7.1071044 18.900017,6.7852238 18.943821,6.6699881 19.214932,6.325226 19.502469,6.0190697 20.09536,5.3877943 20.098915,5.4007425 19.277522,5.1994521 18.983838,5.127473 18.629761,4.9919141 18.490689,4.89819 18.094857,4.631441 18.059236,4.4154583 18.268154,3.5488549 18.367689,3.1360148 18.429712,2.7788382 18.406005,2.7551291 18.382295,2.7314193 18.025119,2.7934521 17.61228,2.8929769 16.747013,3.1015716 16.529602,3.066133 16.264906,2.6733505 16.172262,2.5358774 16.030681,2.1697707 15.950278,1.85978 15.869876,1.5497894 15.756009,1.2777087 15.697237,1.2551561 15.635899,1.2316185 15.383961,1.4178123 15.105798,1.6922544 14.322313,2.4652594 13.974204,2.489754 13.320402,1.8178832 13.128285,1.6204567 12.876719,1.3907104 12.761368,1.3073363 L 12.551639,1.1557466 12.311632,1.9282779 C 12.179631,2.3531705 12.006487,2.7597571 11.926876,2.831804 11.680376,3.0548831 11.345472,3.0682328 10.622399,2.883802 10.246588,2.7879459 9.9176992,2.730925 9.8915353,2.757089 c -0.026158,0.026166 0.032597,0.3803836 0.1305737,0.7871534 0.267915,1.112248 0.100226,1.3855496 -1.0183753,1.6596765 -0.3037186,0.074428 -0.5735553,0.1698555 -0.5996372,0.2120577 -0.026086,0.042205 0.058453,0.1885933 0.1878448,0.3253175 0.1293924,0.1367272 0.33013,0.4017717 0.446073,0.5889994 0.1583736,0.2557483 0.2437465,0.3268199 0.3432496,0.2857499 0.072843,-0.030062 0.2031622,-0.073448 0.2895979,-0.096395 0.2549414,-0.067687 0.3312392,-0.1621755 0.3813892,-0.4723262 0.09461,-0.5850947 0.576018,-1.4243168 1.132804,-1.9747552 1.345152,-1.3298109 3.097318,-1.6259643 4.811255,-0.8132039 1.730058,0.8204065 2.683777,2.8289538 2.239006,4.7153878 -0.304566,1.291766 -1.350408,2.5205441 -2.494381,2.9306881 -0.251875,0.0903 -0.295038,0.140443 -0.29723,0.345233 -0.0014,0.131772 -0.07124,0.434068 -0.155175,0.671763 l -0.152611,0.432173 0.282203,0.264832 c 0.332867,0.312372 0.353853,0.293829 0.543561,-0.480293 z M 6.6490721,11.313469 C 6.6529621,9.9294307 6.7132291,9.4870236 6.93953,9.1833906 7.4526909,8.4948877 8.514976,8.5019631 9.034034,9.1973626 9.1853483,9.4000823 9.2027399,9.5503338 9.23869,10.965348 l 0.039295,1.546438 h 2.32427 2.324272 l 0.288497,-0.220149 c 1.033893,-0.788957 0.532354,-2.3336051 -0.757709,-2.3336051 -0.557313,0 -1.232693,0.5875631 -1.232693,1.0724091 0,0.165823 -0.03526,0.184824 -0.343047,0.184824 H 11.53853 l 0.05798,-0.294663 C 11.737433,10.204249 12.103144,9.7416671 12.735865,9.4794181 13.126185,9.3176373 13.159642,9.2843572 13.11765,9.0996704 12.943467,8.333611 12.37789,7.6098604 11.689727,7.2723913 11.209353,7.0368178 10.195987,6.9768895 9.7616445,7.1583684 l -0.2933589,0.122582 0.048701,0.4152561 c 0.026778,0.2283913 0.062414,0.4594576 0.079181,0.5134801 0.021146,0.068148 -0.073664,0.098224 -0.3096533,0.098224 H 8.9463769 l -0.0451,-0.4369233 C 8.7970468,6.8611209 8.0456686,5.844564 7.0574518,5.3764393 6.5662139,5.1437385 6.467794,5.1255327 5.7009792,5.1255327 c -0.7830135,0 -0.8558084,0.01426 -1.3744675,0.2696612 C 3.6481409,5.7292117 3.1224884,6.2564346 2.7856387,6.9406738 2.5777345,7.3629867 2.5246129,7.576805 2.4977748,8.0993153 c -0.018106,0.3524195 -0.00216,0.7583386 0.035565,0.9020447 0.059274,0.2262062 0.1247398,0.2803353 0.4875717,0.403165 0.2305045,0.078029 0.5127362,0.2113782 0.6271797,0.296317 0.2983299,0.2214225 0.6459207,0.816556 0.6963026,1.192185 l 0.043213,0.322224 H 4.0629542 c -0.2884704,0 -0.3246552,-0.0206 -0.3246552,-0.184824 0,-0.487069 -0.6753574,-1.0724092 -1.2373319,-1.0724092 -0.8495842,0 -1.4643342,0.7161622 -1.3119601,1.5283852 0.065857,0.351008 0.5287523,0.886442 0.8456405,0.978144 0.1374877,0.03979 1.2312085,0.07552 2.4304898,0.07943 l 2.1805109,0.0071 z M 15.961646,10.075021 C 17.209814,9.337406 17.898394,7.8752597 17.657948,6.4730748 17.395594,4.943142 16.216703,3.765318 14.684808,3.5026273 13.605877,3.3176114 12.465445,3.6900844 11.648159,4.4944152 11.198531,4.9369179 10.7393,5.7453447 10.709444,6.1469204 c -0.01643,0.2211113 -9.82e-4,0.2321264 0.411741,0.2934217 0.973344,0.1445531 1.85297,0.7955396 2.310379,1.7098512 0.148801,0.2974305 0.293982,0.6795131 0.32263,0.8490723 0.04684,0.2772916 0.08431,0.3179467 0.372516,0.4042986 0.20932,0.062717 0.459602,0.2406265 0.721776,0.5130825 0.22074,0.2293953 0.456463,0.4209463 0.523833,0.4256673 0.06737,0.0047 0.332564,-0.115567 0.589327,-0.267293 z"
       id="path8777" /></g></svg>
