<?xml version="1.0" encoding="UTF-8" standalone="no"?>
<!-- Created with Inkscape (http://www.inkscape.org/) -->

<svg
   width="80"
   height="80"
   viewBox="0 0 21.166666 21.166667"
   version="1.1"
   id="svg7239"
   xml:space="preserve"
   inkscape:version="1.2.2 (1:1.2.2+202212051552+b0a8486541)"
   sodipodi:docname="fauna_ico.svg"
   xmlns:inkscape="http://www.inkscape.org/namespaces/inkscape"
   xmlns:sodipodi="http://sodipodi.sourceforge.net/DTD/sodipodi-0.dtd"
   xmlns="http://www.w3.org/2000/svg"
   xmlns:svg="http://www.w3.org/2000/svg"><sodipodi:namedview
     id="namedview7241"
     pagecolor="#ffffff"
     bordercolor="#666666"
     borderopacity="1.0"
     inkscape:showpageshadow="2"
     inkscape:pageopacity="0.0"
     inkscape:pagecheckerboard="0"
     inkscape:deskcolor="#d1d1d1"
     inkscape:document-units="px"
     showgrid="false"
     inkscape:zoom="4.0970529"
     inkscape:cx="65.77899"
     inkscape:cy="47.473148"
     inkscape:window-width="1920"
     inkscape:window-height="1016"
     inkscape:window-x="0"
     inkscape:window-y="0"
     inkscape:window-maximized="1"
     inkscape:current-layer="layer1" /><defs
     id="defs7236" /><g
     inkscape:label="Capa 1"
     inkscape:groupmode="layer"
     id="layer1"><path
       style="fill:#000000;stroke-width:0.08316"
       d="m 11.453805,20.239553 c -0.270661,-0.27066 -0.110954,-0.70092 0.260173,-0.70092 h 0.191268 v -1.741264 -1.741265 l -0.395011,-0.05282 C 10.353752,15.848655 9.440464,15.668557 8.6192683,15.433198 L 7.7033516,15.170691 6.7897482,15.403533 c -2.4978007,0.636593 -6.37918895,1.027693 -6.7288627,0.678021 -0.17176666,-0.171768 -0.16576168,-0.39513 0.01485408,-0.552326 0.08003727,-0.06966 0.900937,-0.563583 1.82421082,-1.097594 1.2829086,-0.742021 1.6848348,-1.013573 1.7047808,-1.1518 0.038195,-0.26473 9.0460108,-5.9095564 9.6597448,-6.0533657 0.235792,-0.055251 0.481422,-0.1423317 0.545842,-0.193515 0.220836,-0.1754543 0.419735,-0.7522807 0.421585,-1.2226321 0.0015,-0.3894299 -0.05514,-0.5704482 -0.351497,-1.12266 -0.336768,-0.6275188 -0.353274,-0.6914879 -0.352263,-1.3652273 9.06e-4,-0.6033377 0.03333,-0.7677553 0.221398,-1.1226599 0.481727,-0.9090645 1.284336,-1.40478105 2.272128,-1.40333769 0.703083,0.001027 1.252397,0.21708989 2.010485,0.79078789 l 0.513605,0.3886804 0.823347,0.028774 c 0.99276,0.034695 1.315799,0.2029213 1.643583,0.8559126 0.442882,0.8822831 0.325297,0.9606748 -1.441869,0.9612658 -1.329212,4.407e-4 -1.945836,0.076801 -2.055695,0.2545565 -0.02806,0.045398 0.143083,0.385121 0.380312,0.75494 0.822799,1.28267 1.350492,2.7001083 1.509381,4.0543547 0.255107,2.1743268 -0.758835,4.5098398 -2.546544,5.8657098 -0.676204,0.512859 -1.116436,0.749174 -1.876104,1.007089 l -0.54054,0.183518 -0.02241,1.798304 -0.02241,1.798304 h 0.567109 c 0.605661,0 0.766695,0.08085 0.766695,0.384912 0,0.424625 -0.10885,0.446688 -2.20374,0.446688 -1.654921,0 -1.96172,-0.01934 -2.07306,-0.13068 z m 2.11464,-2.44728 v -1.746359 h -0.4158 -0.415799 v 1.746359 1.74636 h 0.415799 0.4158 z m 0.778017,-2.709438 c 1.099445,-0.282904 2.20728,-0.994248 2.944483,-1.890659 0.457839,-0.556716 0.964177,-1.534101 1.149571,-2.219023 0.219307,-0.810208 0.204206,-2.1029326 -0.03497,-2.9937591 -0.243486,-0.9068648 -0.882108,-2.2464033 -1.472985,-3.0896475 -0.33401,-0.476668 -0.45644,-0.7233973 -0.437805,-0.8822866 0.03296,-0.2810004 0.619514,-0.7385431 1.117553,-0.8717481 0.318072,-0.085071 0.363619,-0.1260055 0.363619,-0.3267916 0,-0.180602 -0.09638,-0.3023003 -0.452042,-0.5708336 -0.469122,-0.3541904 -1.159614,-0.6623524 -1.48232,-0.6615486 -0.626407,0.00156 -1.301468,0.4481304 -1.569586,1.0383229 -0.250642,0.551721 -0.202495,0.9869852 0.197709,1.7873936 0.500332,1.0006661 0.528603,1.6919803 0.10945,2.6764784 -0.04594,0.1078919 0.02434,0.1757504 0.315258,0.3044397 0.525466,0.2324379 1.092795,0.7840907 1.352702,1.3153225 0.751192,1.535382 -0.146488,3.84594 -1.841673,4.74032 -0.94793,0.500128 -2.706458,0.948589 -4.388233,1.11909 -0.5351856,0.05426 -0.9730642,0.125479 -0.9730642,0.158266 0,0.06919 0.6617569,0.217242 1.6656252,0.372641 1.025492,0.158745 2.808603,0.155644 3.436711,-0.006 z M 15.830398,2.973162 C 15.674237,2.8170017 15.713125,2.5125085 15.906525,2.3770424 16.26604,2.1252278 16.678326,2.5375133 16.426511,2.897029 16.291044,3.0904341 15.986552,3.1293223 15.830392,2.9731616 Z M 5.5755441,14.832192 C 6.8327497,14.573569 6.9791049,14.509797 6.4885839,14.434354 6.288956,14.403652 5.7316987,14.282247 5.2502322,14.164566 L 4.3748387,13.950602 4.0668208,14.132337 c -0.3024607,0.178455 -0.305805,0.186015 -0.1853723,0.418908 0.1211667,0.234309 0.4218558,0.496749 0.5691493,0.496749 0.041744,0 0.5479746,-0.09711 1.1249463,-0.215802 z m 5.6522699,-1.231036 c 1.567701,-0.289906 2.831706,-0.719543 3.412104,-1.15978 0.44632,-0.338536 0.907478,-1.019379 1.089393,-1.608349 0.09219,-0.29847 0.167614,-0.573873 0.167614,-0.612008 0,-0.03813 -0.253255,0.01915 -0.56279,0.127292 -1.774382,0.619931 -3.187567,0.824901 -5.323965,0.772192 L 8.4061548,11.080932 7.0164094,11.947629 C 6.2520502,12.424312 5.4769775,12.91209 5.2940255,13.03158 l -0.3326396,0.217253 0.4157995,0.108828 c 0.4050117,0.105999 1.6186184,0.322091 2.2037402,0.392383 0.599231,0.07199 2.9775454,-0.02511 3.6468884,-0.148883 z"
       id="path300" /></g></svg>
