<?xml version="1.0" encoding="UTF-8" standalone="no"?>
<!-- Created with Inkscape (http://www.inkscape.org/) -->

<svg
   width="80"
   height="80"
   viewBox="0 0 21.166666 21.166667"
   version="1.1"
   id="svg7239"
   xml:space="preserve"
   inkscape:version="1.2.2 (1:1.2.2+202212051552+b0a8486541)"
   sodipodi:docname="ecosistema_ico.svg"
   xmlns:inkscape="http://www.inkscape.org/namespaces/inkscape"
   xmlns:sodipodi="http://sodipodi.sourceforge.net/DTD/sodipodi-0.dtd"
   xmlns="http://www.w3.org/2000/svg"
   xmlns:svg="http://www.w3.org/2000/svg"><sodipodi:namedview
     id="namedview7241"
     pagecolor="#ffffff"
     bordercolor="#666666"
     borderopacity="1.0"
     inkscape:showpageshadow="2"
     inkscape:pageopacity="0.0"
     inkscape:pagecheckerboard="0"
     inkscape:deskcolor="#d1d1d1"
     inkscape:document-units="px"
     showgrid="false"
     inkscape:zoom="4.0970529"
     inkscape:cx="70.41647"
     inkscape:cy="46.984993"
     inkscape:window-width="1920"
     inkscape:window-height="1016"
     inkscape:window-x="0"
     inkscape:window-y="0"
     inkscape:window-maximized="1"
     inkscape:current-layer="layer1" /><defs
     id="defs7236" /><g
     inkscape:label="Capa 1"
     inkscape:groupmode="layer"
     id="layer1"><path
       style="fill:#000000;stroke-width:0.0840719"
       d="M 7.8227761,20.5985 C 5.9858519,20.339127 4.4348807,19.573725 3.0649341,18.250513 1.9402428,17.16419 1.1709925,15.843599 0.76010854,14.293766 0.58469784,13.632129 0.54677234,13.29098 0.54035884,12.317113 c -0.00823,-1.259108 0.039759,-1.592416 0.2407019,-1.669523 0.32781846,-0.125803 0.35603856,-0.01212 0.34773296,1.400812 -0.00693,1.17499 0.018559,1.459603 0.1857223,2.076255 0.7791361,2.874052 2.9587826,5.034093 5.783001,5.73098 1.0539679,0.26007 2.6401461,0.26171 3.672118,0.0038 1.373362,-0.343235 2.559279,-1.001062 3.577912,-1.984662 1.116252,-1.077861 1.84634,-2.331554 2.21438,-3.802491 0.266144,-1.063694 0.263575,-2.722459 -0.0058,-3.730859 -0.324306,-1.2140512 -0.906013,-2.3241505 -1.705989,-3.2555573 -0.342721,-0.3990252 -1.23393,-1.200202 -1.335077,-1.200202 -0.0291,0 -0.232576,0.1399863 -0.452183,0.3110817 l -0.399287,0.3110821 0.238365,0.1699757 c 0.464836,0.3314696 1.229839,1.1064177 1.583326,1.6039088 0.48906,0.6882918 0.756335,1.2432661 1.020017,2.117981 0.19282,0.639647 0.222962,0.889265 0.221387,1.833393 -0.0016,0.933663 -0.03408,1.200842 -0.223211,1.833394 -0.591974,1.979941 -1.887476,3.506195 -3.693371,4.351229 -1.002744,0.469215 -2.7110204,0.768726 -3.4618793,0.606967 -0.2810607,-0.06055 -0.3406556,-0.10987 -0.3628893,-0.30034 -0.014634,-0.125341 0.00433,-0.230698 0.04204,-0.234122 0.037754,-0.0034 0.4847939,-0.01936 0.9934285,-0.03539 1.0628741,-0.03351 1.8569081,-0.229438 2.7172851,-0.670498 0.758609,-0.388891 0.977779,-0.545465 1.559034,-1.11376 1.294474,-1.265611 2.026873,-3.199877 1.865138,-4.92583 -0.07841,-0.836763 -0.119323,-0.887004 -0.521111,-0.639861 -0.1781,0.109554 -0.484394,0.346632 -0.68065,0.52684 -0.490173,0.450093 -0.569966,0.782776 -0.437347,1.823423 0.101787,0.798675 0.09991,0.820175 -0.111111,1.281107 -0.418174,0.913414 -1.363414,1.658395 -2.104183,1.658395 -0.258522,0 -0.386496,-0.0583 -0.602869,-0.27468 -0.368691,-0.368691 -0.46504,-0.865049 -0.465622,-2.398741 -2.51e-4,-0.679757 -0.04113,-1.382367 -0.09084,-1.561355 -0.09017,-0.324736 -0.0911,-0.325316 -0.4409059,-0.271224 -0.192801,0.02981 -0.7099543,0.07529 -1.1492299,0.101069 -0.7244145,0.0425 -0.8337244,0.02863 -1.1758592,-0.149135 C 6.8058821,11.540894 6.5113219,11.056533 6.4709185,10.341479 6.4321704,9.6557401 6.5961827,9.2373614 7.1307522,8.6583187 7.3148753,8.4588776 7.456058,8.2905991 7.4444909,8.284366 7.4329309,8.2781602 7.1989658,8.228226 6.9245813,8.1734571 6.6501969,8.1186881 6.1081981,7.9165958 5.7201395,7.7243605 L 5.0145799,7.3748436 4.5112584,7.8702925 c -0.5214349,0.5132781 -1.253783,1.5868388 -1.265607,1.8552706 -0.00577,0.131849 0.7238997,1.4819949 0.9531715,1.7636059 0.043368,0.05327 0.1813293,0.121689 0.3065906,0.152058 0.4893241,0.11863 0.9250842,0.389179 1.0283342,0.638448 0.1460533,0.352601 0.069994,0.685748 -0.3814099,1.670513 l -0.3942497,0.860086 0.2138312,0.476895 c 0.2691428,0.600252 0.4082617,1.21411 0.3798526,1.676089 -0.025054,0.407444 0.00136,0.434648 0.832127,0.85681 0.6008117,0.305311 0.6493518,0.359817 0.5258829,0.590521 -0.1195681,0.223419 -0.254711,0.214437 -0.7813905,-0.05194 -1.7595838,-0.889926 -2.9815099,-2.363769 -3.5585696,-4.29221 -0.3204307,-1.070828 -0.3204307,-2.595958 0,-3.666786 C 2.7347055,9.1802674 3.19797,8.3782178 4.0334597,7.5193903 L 4.5296634,7.0093234 3.9149351,6.3844167 C 3.5768353,6.040718 3.1162394,5.5016423 2.8913909,5.1864708 2.4822879,4.6130323 1.7486122,3.3792149 1.7486122,3.2646693 c 0,-0.2535246 1.7311501,-1.4569017 2.8820829,-2.0034265 C 5.6989363,0.75398474 6.2784739,0.59569684 7.297355,0.53290394 8.1814123,0.47842064 8.8286292,0.59945994 9.6410161,0.97120514 10.294629,1.2702962 11.16466,1.9127694 11.16466,2.0963381 c 0,0.2092831 -0.236163,0.397494 -0.370689,0.2954224 C 10.283496,2.0044382 9.4390183,1.5058731 9.0489506,1.3615281 8.5129441,1.1631791 7.7149946,1.0333294 7.7229277,1.145745 c 0.00288,0.040638 0.5643179,0.8304276 1.2476698,1.7550906 l 1.2424575,1.6812058 1.169395,0.2307394 c 0.643167,0.1269067 1.238926,0.2215917 1.32391,0.210411 0.13016,-0.017125 0.08379,-0.1249786 -0.294252,-0.6844015 -0.761297,-1.1265482 -0.718727,-1.0356508 -0.559576,-1.1948016 0.0769,-0.076892 0.198379,-0.1173296 0.269969,-0.089859 0.162237,0.062257 0.802332,0.9255935 1.233079,1.6631333 0.178724,0.3060189 0.430406,0.6250103 0.559291,0.7088697 0.128891,0.083859 0.461332,0.3697937 0.738769,0.6354092 l 0.504431,0.4829379 V 5.4794199 c 0,-0.9886781 0.01674,-1.1008141 0.23348,-1.563617 0.425588,-0.9087721 1.172571,-1.6118792 2.330712,-2.1938109 0.636389,-0.3197667 1.600711,-0.6387389 1.769288,-0.5852343 0.170356,0.054069 0.673248,1.1178428 0.933428,1.9744889 0.267576,0.8810081 0.269925,2.1939557 0.005,2.8620038 -0.4202,1.0600791 -1.593442,2.0772543 -3.021769,2.6198103 -0.53768,0.2042398 -0.695402,0.2992564 -0.661866,0.3987295 0.70159,2.0810798 0.799311,3.5614378 0.351601,5.3263648 -0.374108,1.474776 -1.030323,2.633866 -2.143839,3.786709 -1.515064,1.568577 -3.500732,2.454253 -5.6811814,2.534008 -0.508636,0.01861 -1.1612548,4.19e-4 -1.4502675,-0.04037 z M 4.7406025,16.464214 C 4.7097616,16.271304 4.5700467,15.852661 4.4301398,15.533896 4.1270604,14.843354 4.1377473,14.753552 4.6589282,13.611355 4.8615963,13.1672 5.0274142,12.725976 5.0274142,12.630861 5.0274142,12.49448 4.9050464,12.41116 4.4486616,12.236767 3.7740613,11.978988 3.7210185,11.927983 3.2805174,11.11356 2.9051301,10.419523 2.895758,10.425519 2.7550271,11.449827 c -0.2317123,1.686519 0.3749515,3.659342 1.498455,4.872859 0.2506658,0.27075 0.4754335,0.492272 0.4994813,0.492272 0.024044,0 0.018487,-0.157835 -0.012412,-0.350744 z m 7.0595695,-0.792221 c 0.359714,-0.170695 0.936671,-0.793961 1.102609,-1.191107 0.109062,-0.261019 0.113392,-0.421768 0.02932,-1.089599 -0.105262,-0.836247 -0.07235,-1.146725 0.172948,-1.63142 0.179921,-0.35552 0.768298,-0.895859 1.325648,-1.217417 0.215093,-0.1241 0.402122,-0.234289 0.415617,-0.244869 0.04931,-0.03866 -0.275074,-0.7680649 -0.560036,-1.2592683 -0.33126,-0.5710199 -1.219721,-1.5344395 -1.75871,-1.9070991 L 12.167006,6.8819204 11.140383,7.3960888 C 10.465338,7.7341755 9.8546411,7.9715249 9.3571143,8.0891605 8.4466022,8.3044421 7.673591,8.794876 7.289051,9.4012324 6.8532071,10.088486 7.0202531,11.015151 7.6361663,11.326805 c 0.2625286,0.132844 0.8473584,0.135356 1.7320266,0.0075 1.2717811,-0.183878 1.3900201,0.0088 1.4562191,2.37379 0.05881,2.100825 0.178718,2.342176 0.97576,1.963953 z m 6.096189,-7.9480353 c 0.881594,-0.454458 1.52199,-1.0461545 1.847182,-1.7067136 0.144512,-0.2935442 0.25012,-0.6100591 0.234686,-0.7033662 -0.02626,-0.1588321 -0.09694,-0.1410209 -1.108216,0.279343 -0.594085,0.2469456 -1.091166,0.4610484 -1.104629,0.4757842 -0.01342,0.014737 -0.216554,0.492382 -0.451319,1.0614363 -0.49035,1.1885856 -0.5178,1.1606079 0.582296,0.5935163 z M 16.746889,6.9811452 c 0.212778,-0.5072089 0.38729,-0.9706549 0.387804,-1.0298806 0.0018,-0.2237885 -0.874958,-2.2544552 -0.961376,-2.2262986 -0.04975,0.01621 -0.174416,0.2347031 -0.277035,0.485541 -0.327085,0.7995219 -0.230727,2.2429097 0.21992,3.2942235 0.09398,0.2192374 0.187278,0.3986111 0.207341,0.3986111 0.02006,0 0.21057,-0.4149883 0.423346,-0.9221964 z M 8.8106472,7.6151704 C 9.9230151,7.4137693 11.088653,6.8893542 12.257593,6.0644035 L 12.80406,5.6787478 11.45891,5.4146358 C 10.719079,5.2693742 10.075928,5.17713 10.029688,5.2096486 8.8708038,6.0246531 6.88622,7.5202303 6.9194826,7.5534943 c 0.055548,0.055548 0.6699648,0.1580636 1.0084108,0.1682482 0.1387192,0.00419 0.5359578,-0.043786 0.8827538,-0.1065794 z M 8.125229,5.8605876 C 8.7423978,5.4055368 9.2342186,5.0207753 9.2181628,5.0055617 9.1433199,4.9346421 6.9340832,4.5328332 6.8327643,4.5717129 6.6428828,4.6445778 4.6070558,6.1548187 4.6070558,6.2228148 c 0,0.089984 0.8241721,0.7000877 1.2205044,0.9034933 L 6.1623839,7.298147 6.5827438,6.9930501 C 6.8139409,6.8252464 7.5080589,6.3156382 8.125229,5.8605876 Z M 5.5161018,4.7676615 C 5.9959989,4.415476 6.0282051,4.3736113 5.8523903,4.3305184 5.3449297,4.2061373 2.7131155,3.7160846 2.6879175,3.7412824 2.6401768,3.7890201 3.2568491,4.7178617 3.7034982,5.2709745 L 4.1236718,5.7913012 4.5545251,5.4742244 C 4.791495,5.2998321 5.2242042,4.981879 5.5161018,4.7676615 Z M 19.153824,4.8398541 20.034239,4.4666658 20.007496,4.0621894 C 19.970246,3.4988895 19.484137,2.0457116 19.38951,2.2147992 c -0.07767,0.1387855 -1.246887,2.9239662 -1.246887,2.9701932 0,0.068219 0.184927,0.00509 1.011201,-0.3451383 z M 18.182344,3.5450736 C 18.537521,2.6970498 18.807866,1.9829577 18.783111,1.9582023 18.676679,1.8517689 17.568938,2.4144287 16.907512,2.9108835 l -0.268284,0.2013691 0.154895,0.3568023 c 0.0852,0.1962414 0.276471,0.6519622 0.425067,1.0127132 0.148595,0.3607509 0.280795,0.6444935 0.293775,0.630539 0.01299,-0.013956 0.314202,-0.7192097 0.669379,-1.5672335 z M 9.2147556,4.2190911 C 9.1543298,4.1348133 8.6184858,3.4013825 8.0239823,2.5892461 L 6.9430643,1.1126344 6.426617,1.2322601 C 5.7566132,1.3874539 5.3637012,1.5300195 5.3637012,1.6179326 c 0,0.051719 0.9799989,1.4344043 1.6416668,2.3162353 0.025487,0.033972 1.9821208,0.4236136 2.1673524,0.4316044 0.1313006,0.00566 0.1370018,-0.014229 0.042041,-0.1466808 z M 6.1203482,3.7422697 c 0,-0.082915 -1.3611344,-1.8921009 -1.4235147,-1.8921009 -0.077918,0 -1.439133,0.8497631 -1.7387962,1.0854785 l -0.2146654,0.1688561 0.1962128,0.048367 c 0.1979908,0.048805 3.0007028,0.6091421 3.1177107,0.6233144 0.03468,0.0042 0.063053,-0.011055 0.063053,-0.033915 z"
       id="path8742" /></g></svg>
